<svg xmlns="http://www.w3.org/2000/svg" xmlns:xlink="http://www.w3.org/1999/xlink" contentStyleType="text/css" data-diagram-type="DESCRIPTION" height="588px" preserveAspectRatio="none" style="width:754px;height:588px;background:#FFFFFF;" version="1.1" viewBox="0 0 754 588" width="754px" zoomAndPan="magnify"><?plantuml 1.2026.3beta6?><defs/><g><!--cluster QR-Guard--><g class="cluster" data-qualified-name="QR-Guard" data-source-line="9" id="ent0005"><rect fill="none" height="567" rx="2.5" ry="2.5" style="stroke:#181818;stroke-width:1;" width="518.96" x="120.92" y="7"/><text fill="#000000" font-family="sans-serif" font-size="14" font-weight="700" lengthAdjust="spacing" textLength="76.3232" x="342.2384" y="21.9951">QR-Guard</text></g><!--entity UC_Login--><g class="entity" data-qualified-name="QR-Guard.UC_Login" data-source-line="10" id="ent0006"><ellipse cx="234.3069" cy="271.0014" fill="#F1F1F1" rx="71.4069" ry="16.6814" style="stroke:#181818;stroke-width:0.5;"/><text fill="#000000" font-family="sans-serif" font-size="14" lengthAdjust="spacing" textLength="109.9014" x="179.3562" y="275.6498">Register / Login</text></g><!--entity UC_Enroll--><g class="entity" data-qualified-name="QR-Guard.UC_Enroll" data-source-line="12" id="ent0007"><ellipse cx="234.3079" cy="137.0016" fill="#F1F1F1" rx="70.7579" ry="16.5516" style="stroke:#181818;stroke-width:0.5;"/><text fill="#000000" font-family="sans-serif" font-size="14" lengthAdjust="spacing" textLength="108.2813" x="180.1673" y="141.65">Enroll in course</text></g><!--entity UC_Scan--><g class="entity" data-qualified-name="QR-Guard.UC_Scan" data-source-line="13" id="ent0008"><ellipse cx="234.3128" cy="204.0026" fill="#F1F1F1" rx="66.5128" ry="15.7026" style="stroke:#181818;stroke-width:0.5;"/><text fill="#000000" font-family="sans-serif" font-size="14" lengthAdjust="spacing" textLength="97.4463" x="185.5896" y="208.651">Scan QR code</text></g><!--entity UC_History--><g class="entity" data-qualified-name="QR-Guard.UC_History" data-source-line="14" id="ent0009"><ellipse cx="234.3145" cy="63.9969" fill="#F1F1F1" rx="97.3845" ry="21.8769" style="stroke:#181818;stroke-width:0.5;"/><text fill="#000000" font-family="sans-serif" font-size="14" lengthAdjust="spacing" textLength="170.2764" x="149.1763" y="68.6453">View attendance history</text></g><!--entity UC_Manage--><g class="entity" data-qualified-name="QR-Guard.UC_Manage" data-source-line="16" id="ent0010"><ellipse cx="234.3112" cy="541.9982" fill="#F1F1F1" rx="70.1912" ry="16.4382" style="stroke:#181818;stroke-width:0.5;"/><text fill="#000000" font-family="sans-serif" font-size="14" lengthAdjust="spacing" textLength="106.8594" x="180.8815" y="546.6467">Manage course</text></g><!--entity UC_Start--><g class="entity" data-qualified-name="QR-Guard.UC_Start" data-source-line="17" id="ent0011"><ellipse cx="234.3051" cy="339.999" fill="#F1F1F1" rx="73.7451" ry="17.149" style="stroke:#181818;stroke-width:0.5;"/><text fill="#000000" font-family="sans-serif" font-size="14" lengthAdjust="spacing" textLength="115.6709" x="176.4696" y="344.6475">Start QR session</text></g><!--entity UC_Reports--><g class="entity" data-qualified-name="QR-Guard.UC_Reports" data-source-line="18" id="ent0012"><ellipse cx="234.3112" cy="406.9982" fill="#F1F1F1" rx="63.0912" ry="15.0182" style="stroke:#181818;stroke-width:0.5;"/><text fill="#000000" font-family="sans-serif" font-size="14" lengthAdjust="spacing" textLength="88.3408" x="190.1408" y="411.6467">View reports</text></g><!--entity UC_Override--><g class="entity" data-qualified-name="QR-Guard.UC_Override" data-source-line="19" id="ent0013"><ellipse cx="234.3071" cy="473.9974" fill="#F1F1F1" rx="72.9371" ry="16.9874" style="stroke:#181818;stroke-width:0.5;"/><text fill="#000000" font-family="sans-serif" font-size="14" lengthAdjust="spacing" textLength="113.6885" x="177.4628" y="478.6459">Manual override</text></g><!--entity UC_Warn--><g class="entity" data-qualified-name="QR-Guard.UC_Warn" data-source-line="21" id="ent0014"><ellipse cx="540.2949" cy="70.999" fill="#F1F1F1" rx="83.5949" ry="19.119" style="stroke:#181818;stroke-width:0.5;"/><text fill="#000000" font-family="sans-serif" font-size="14" lengthAdjust="spacing" textLength="139.0771" x="470.7563" y="75.6474">Send warning email</text></g><!--entity UC_Close--><g class="entity" data-qualified-name="QR-Guard.UC_Close" data-source-line="22" id="ent0015"><ellipse cx="540.2865" cy="340.0033" fill="#F1F1F1" rx="79.6665" ry="18.3333" style="stroke:#181818;stroke-width:0.5;"/><text fill="#000000" font-family="sans-serif" font-size="14" lengthAdjust="spacing" textLength="129.8896" x="475.3417" y="344.6517">Auto-close session</text></g><!--entity UC_Loc--><g class="entity" data-qualified-name="QR-Guard.UC_Loc" data-source-line="24" id="ent0016"><ellipse cx="540.2949" cy="271.001" fill="#F1F1F1" rx="67.9049" ry="15.981" style="stroke:#181818;stroke-width:0.5;"/><text fill="#000000" font-family="sans-serif" font-size="14" lengthAdjust="spacing" textLength="101.0488" x="489.7705" y="275.6494">Verify location</text></g><!--entity UC_Dev--><g class="entity" data-qualified-name="QR-Guard.UC_Dev" data-source-line="25" id="ent0017"><ellipse cx="540.2862" cy="205.0012" fill="#F1F1F1" rx="64.2562" ry="15.2512" style="stroke:#181818;stroke-width:0.5;"/><text fill="#000000" font-family="sans-serif" font-size="14" lengthAdjust="spacing" textLength="91.4854" x="494.5435" y="209.6497">Verify device</text></g><!--entity UC_IP--><g class="entity" data-qualified-name="QR-Guard.UC_IP" data-source-line="26" id="ent0018"><ellipse cx="540.2926" cy="140.0036" fill="#F1F1F1" rx="44.0626" ry="14.5236" style="stroke:#181818;stroke-width:0.5;"/><text fill="#000000" font-family="sans-serif" font-size="14" lengthAdjust="spacing" textLength="58.0713" x="511.257" y="144.6521">Verify IP</text></g><!--entity student--><g class="entity" data-qualified-name="student" data-source-line="5" id="ent0002"><ellipse cx="39.9657" cy="141.35" fill="#F1F1F1" rx="8" ry="8" style="stroke:#181818;stroke-width:0.5;"/><path d="M39.9657,149.35 L39.9657,176.35 M26.9657,157.35 L52.9657,157.35 M39.9657,176.35 L26.9657,191.35 M39.9657,176.35 L52.9657,191.35" fill="none" style="stroke:#181818;stroke-width:0.5;"/><text fill="#000000" font-family="sans-serif" font-size="14" lengthAdjust="spacing" textLength="55.1113" x="12.41" y="205.8451">Student</text></g><!--entity instructor--><g class="entity" data-qualified-name="instructor" data-source-line="6" id="ent0003"><ellipse cx="39.9609" cy="377.35" fill="#F1F1F1" rx="8" ry="8" style="stroke:#181818;stroke-width:0.5;"/><path d="M39.9609,385.35 L39.9609,412.35 M26.9609,393.35 L52.9609,393.35 M39.9609,412.35 L26.9609,427.35 M39.9609,412.35 L52.9609,427.35" fill="none" style="stroke:#181818;stroke-width:0.5;"/><text fill="#000000" font-family="sans-serif" font-size="14" lengthAdjust="spacing" textLength="67.9219" x="6" y="441.8451">Instructor</text></g><!--entity system--><g class="entity" data-qualified-name="system" data-source-line="7" id="ent0004"><ellipse cx="712.983" cy="147.35" fill="#F1F1F1" rx="8" ry="8" style="stroke:#181818;stroke-width:0.5;"/><path d="M712.983,155.35 L712.983,182.35 M699.983,163.35 L725.983,163.35 M712.983,182.35 L699.983,197.35 M712.983,182.35 L725.983,197.35" fill="none" style="stroke:#181818;stroke-width:0.5;"/><text fill="#000000" font-family="sans-serif" font-size="14" lengthAdjust="spacing" textLength="52.2061" x="686.88" y="211.8451">System</text></g><!--link student to UC_Login--><g class="link" data-entity-1="ent0002" data-entity-2="ent0006" data-link-type="association" data-source-line="29" id="lnk19"><path d="M67.91,201.38 C80.49,213.96 96.34,227.75 112.92,237 C132.46,247.9 155.76,255.53 176.64,260.76" fill="none" id="student-UC_Login" style="stroke:#181818;stroke-width:1;"/></g><!--link instructor to UC_Login--><g class="link" data-entity-1="ent0003" data-entity-2="ent0006" data-link-type="association" data-source-line="30" id="lnk20"><path d="M59.67,368.52 C72.01,346.92 90.1,321.15 112.92,305 C130.38,292.64 152.23,284.76 172.5,279.74" fill="none" id="instructor-UC_Login" style="stroke:#181818;stroke-width:1;"/></g><!--link student to UC_Enroll--><g class="link" data-entity-1="ent0002" data-entity-2="ent0007" data-link-type="association" data-source-line="32" id="lnk21"><path d="M67.71,166.27 C95.78,161.31 140.77,153.36 176.77,146.99" fill="none" id="student-UC_Enroll" style="stroke:#181818;stroke-width:1;"/></g><!--link student to UC_Scan--><g class="link" data-entity-1="ent0002" data-entity-2="ent0008" data-link-type="association" data-source-line="33" id="lnk22"><path d="M67.71,175.59 C96.51,180.53 143.09,188.52 179.53,194.77" fill="none" id="student-UC_Scan" style="stroke:#181818;stroke-width:1;"/></g><!--link student to UC_History--><g class="link" data-entity-1="ent0002" data-entity-2="ent0009" data-link-type="association" data-source-line="34" id="lnk23"><path d="M67.93,139.98 C80.52,127.06 96.36,112.82 112.92,103 C129.17,93.36 148.09,85.8 166.05,80.01" fill="none" id="student-UC_History" style="stroke:#181818;stroke-width:1;"/></g><!--link instructor to UC_Manage--><g class="link" data-entity-1="ent0003" data-entity-2="ent0010" data-link-type="association" data-source-line="36" id="lnk24"><path d="M60.04,445.6 C72.4,466.88 90.39,492.13 112.92,508 C130.68,520.5 152.93,528.43 173.46,533.44" fill="none" id="instructor-UC_Manage" style="stroke:#181818;stroke-width:1;"/></g><!--link instructor to UC_Start--><g class="link" data-entity-1="ent0003" data-entity-2="ent0011" data-link-type="association" data-source-line="37" id="lnk25"><path d="M74.19,390.46 C86.22,384.82 100.02,378.75 112.92,374 C135.34,365.75 160.72,358.31 182.38,352.51" fill="none" id="instructor-UC_Start" style="stroke:#181818;stroke-width:1;"/></g><!--link instructor to UC_Reports--><g class="link" data-entity-1="ent0003" data-entity-2="ent0012" data-link-type="association" data-source-line="38" id="lnk26"><path d="M74.03,407 C100.56,407 138.56,407 170.79,407" fill="none" id="instructor-UC_Reports" style="stroke:#181818;stroke-width:1;"/></g><!--link instructor to UC_Override--><g class="link" data-entity-1="ent0003" data-entity-2="ent0013" data-link-type="association" data-source-line="39" id="lnk27"><path d="M74.19,423.54 C86.22,429.18 100.02,435.25 112.92,440 C135.44,448.29 160.95,455.76 182.67,461.57" fill="none" id="instructor-UC_Override" style="stroke:#181818;stroke-width:1;"/></g><!--link UC_Warn to system--><g class="link" data-entity-1="ent0014" data-entity-2="ent0004" data-link-type="association" data-source-line="41" id="lnk28"><path d="M598.44,85.16 C615.17,90.77 632.95,98.26 647.88,108 C662.26,117.38 675.63,130.68 686.39,143.09" fill="none" id="UC_Warn-system" style="stroke:#181818;stroke-width:1;"/></g><!--link UC_Close to system--><g class="link" data-entity-1="ent0015" data-entity-2="ent0004" data-link-type="association" data-source-line="42" id="lnk29"><path d="M602.53,328.21 C618.62,322.86 635.04,315.14 647.88,304 C674.65,280.78 691.55,243.68 701.24,215.57" fill="none" id="UC_Close-system" style="stroke:#181818;stroke-width:1;"/></g><!--link UC_Scan to UC_Loc--><g class="link" data-entity-1="ent0008" data-entity-2="ent0016" data-link-type="dependency" data-source-line="44" id="lnk30"><path d="M284.15,214.76 C340.54,227.19 426.9306,246.2388 483.7006,258.7488" fill="none" id="UC_Scan-to-UC_Loc" style="stroke:#181818;stroke-width:1;stroke-dasharray:7,7;"/><polygon fill="#181818" points="489.56,260.04,481.6317,254.1969,484.6771,258.964,479.9101,262.0095,489.56,260.04" style="stroke:#181818;stroke-width:1;"/><text fill="#000000" font-family="sans-serif" font-size="13" lengthAdjust="spacing" textLength="63.0068" x="362.69" y="230.0669">&#171;include&#187;</text></g><!--link UC_Scan to UC_Dev--><g class="link" data-entity-1="ent0008" data-entity-2="ent0017" data-link-type="dependency" data-source-line="45" id="lnk31"><path d="M301.27,204.22 C352.95,204.39 418.43,204.6 469.54,204.77" fill="none" id="UC_Scan-to-UC_Dev" style="stroke:#181818;stroke-width:1;stroke-dasharray:7,7;"/><polygon fill="#181818" points="475.54,204.79,466.5534,200.7601,470.54,204.7734,466.5267,208.76,475.54,204.79" style="stroke:#181818;stroke-width:1;"/><text fill="#000000" font-family="sans-serif" font-size="13" lengthAdjust="spacing" textLength="63.0068" x="362.69" y="201.0669">&#171;include&#187;</text></g><!--link UC_Scan to UC_IP--><g class="link" data-entity-1="ent0008" data-entity-2="ent0018" data-link-type="dependency" data-source-line="46" id="lnk32"><path d="M285.16,193.5 C346.14,180.67 442.0488,160.4766 496.4588,149.0166" fill="none" id="UC_Scan-to-UC_IP" style="stroke:#181818;stroke-width:1;stroke-dasharray:7,7;"/><polygon fill="#181818" points="502.33,147.78,492.6988,145.7208,497.4373,148.8105,494.3476,153.549,502.33,147.78" style="stroke:#181818;stroke-width:1;"/><text fill="#000000" font-family="sans-serif" font-size="13" lengthAdjust="spacing" textLength="63.0068" x="362.69" y="161.0669">&#171;include&#187;</text></g><!--reverse link UC_Scan to UC_Warn--><g class="link" data-entity-1="ent0008" data-entity-2="ent0014" data-link-type="dependency" data-source-line="50" id="lnk33"><path d="M288.1531,190.9384 C304.5131,185.7884 316.76,180.48 331.69,171 C347.88,160.72 345.72,150.61 361.69,140 C399.44,114.93 447.65,96.93 484.31,85.62" fill="none" id="UC_Scan-backto-UC_Warn" style="stroke:#181818;stroke-width:1;stroke-dasharray:7,7;"/><polygon fill="#181818" points="282.43,192.74,292.2158,193.853,287.1993,191.2387,289.8136,186.2222,282.43,192.74" style="stroke:#181818;stroke-width:1;"/><text fill="#000000" font-family="sans-serif" font-size="13" lengthAdjust="spacing" textLength="61.1851" x="363.69" y="103.0669">&#171;extend&#187;</text></g><!--reverse link UC_Start to UC_Close--><g class="link" data-entity-1="ent0011" data-entity-2="ent0015" data-link-type="dependency" data-source-line="51" id="lnk34"><path d="M314.5,340 C360.36,340 413.43,340 460.33,340" fill="none" id="UC_Start-backto-UC_Close" style="stroke:#181818;stroke-width:1;stroke-dasharray:7,7;"/><polygon fill="#181818" points="308.5,340,317.5,344,313.5,340,317.5,336,308.5,340" style="stroke:#181818;stroke-width:1;"/><text fill="#000000" font-family="sans-serif" font-size="13" lengthAdjust="spacing" textLength="61.1851" x="363.69" y="336.0669">&#171;extend&#187;</text></g><?plantuml-src VLHDZzCm4BtxLunwuR8jTrHLWWL1fKLqMx4SqQmpJImSJsKxBH7YlpFELvka8YVxpHldUTwCBHqZH0PlyY92PZpfQDYfyCku4teieMJ7kl1S4aHVqKqa59ZnnRWSZcW3AOKwieV58LOPkRW0313QTH_QkY27f7KJDSDsoAr3fB9DRPPA9KdeSakmUDulFrVeimNyKI1V5KXZaC2USYDi3s_XYNFZcWE-F_viDchC_UGyMol_1isL3zHpMtpCFMXqyBmNPZRm4ZPclHYw0CP8BaEd2GhHmhxk4xwqsucCh-Wmfuc65fneYEXZ4X4e1F5cq97mEq8ydTZ7qDFsxNRsymejy9cyDzUhVUls4wa7kHXSqBlaDPLeR9_mGy0nztqLUQajotgYzp61avDVo9jZ3POrnXlg4-kxl8pEHWzgFzBvBckxwndRdVghLDU3i5nUM-BQUIDumkrQOWms_e-XmU7PiPsXCxmrRmRtPiq2LsUwgYUycv2-jZUGwdJ2QhNf2WhlOBqsJbiHljbC2LBB_nEskqbSlO4FjTG-zSHwjMfccJ03FgQK1uW50NhF5ta3ZCoRPfycsTPmOkDYIAzEuhmcwyH2I1u-oAclLGGJXxSXD2oBDGjEJboYb7goA9EMGlHR1YyrMW1s3T8-Pa7AjHgkaIJsfKiNQRAoxfxDX7MCjfItb7y0?></g></svg>