<svg xmlns="http://www.w3.org/2000/svg" xmlns:xlink="http://www.w3.org/1999/xlink" contentStyleType="text/css" data-diagram-type="ACTIVITY" height="1873px" preserveAspectRatio="none" style="width:392px;height:1873px;background:#FFFFFF;" version="1.1" viewBox="0 0 392 1873" width="392px" zoomAndPan="magnify"><?plantuml 1.2026.3beta6?><defs/><g><ellipse cx="194.4229" cy="25" fill="#222222" rx="10" ry="10" style="stroke:#222222;stroke-width:1;"/><rect fill="#F1F1F1" height="43.9688" rx="12.5" ry="12.5" style="stroke:#181818;stroke-width:0.5;" width="151.0078" x="118.9189" y="55"/><text fill="#000000" font-family="sans-serif" font-size="12" lengthAdjust="spacing" textLength="121.0078" x="133.9189" y="81.1387">Student taps "Scan"</text><rect fill="#F1F1F1" height="57.9375" rx="12.5" ry="12.5" style="stroke:#181818;stroke-width:0.5;" width="147.0703" x="120.8877" y="118.9688"/><text fill="#000000" font-family="sans-serif" font-size="12" lengthAdjust="spacing" textLength="111.6855" x="135.8877" y="145.1074">Activate camera &amp;</text><text fill="#000000" font-family="sans-serif" font-size="12" lengthAdjust="spacing" textLength="117.0703" x="135.8877" y="159.0762">decode QR payload</text><rect fill="#F1F1F1" height="43.9688" rx="12.5" ry="12.5" style="stroke:#181818;stroke-width:0.5;" width="191.3438" x="98.751" y="196.9063"/><text fill="#000000" font-family="sans-serif" font-size="12" lengthAdjust="spacing" textLength="161.3438" x="113.751" y="223.0449">Request GPS from browser</text><rect fill="#F1F1F1" height="43.9688" rx="12.5" ry="12.5" style="stroke:#181818;stroke-width:0.5;" width="267.7324" x="60.5566" y="314.2773"/><text fill="#000000" font-family="sans-serif" font-size="12" lengthAdjust="spacing" textLength="237.7324" x="75.5566" y="340.416">Display "QR expired &#8212; wait for refresh"</text><ellipse cx="194.4229" cy="392.7617" fill="none" rx="11" ry="11" style="stroke:#222222;stroke-width:1;"/><ellipse cx="194.4229" cy="392.7617" fill="#222222" rx="6" ry="6" style="stroke:#222222;stroke-width:1;"/><polygon fill="#F1F1F1" points="139.1145,260.875,249.7312,260.875,261.7312,272.875,249.7312,284.875,139.1145,284.875,127.1145,272.875,139.1145,260.875" style="stroke:#181818;stroke-width:0.5;"/><text fill="#000000" font-family="sans-serif" font-size="11" lengthAdjust="spacing" textLength="23.5415" x="210.416" y="300.0854">[No]</text><text fill="#000000" font-family="sans-serif" font-size="11" lengthAdjust="spacing" textLength="86.6304" x="151.1077" y="276.6831">QR token valid?</text><text fill="#000000" font-family="sans-serif" font-size="11" lengthAdjust="spacing" textLength="27.8008" x="273.7244" y="265.2808">[Yes]</text><rect fill="#F1F1F1" height="57.9375" rx="12.5" ry="12.5" style="stroke:#181818;stroke-width:0.5;" width="183.8789" x="102.4834" y="445.7617"/><text fill="#000000" font-family="sans-serif" font-size="12" lengthAdjust="spacing" textLength="153.8789" x="117.4834" y="471.9004">Lookup device fingerprint</text><text fill="#000000" font-family="sans-serif" font-size="12" lengthAdjust="spacing" textLength="87.6387" x="117.4834" y="485.8691">from database</text><rect fill="#F1F1F1" height="43.9688" rx="12.5" ry="12.5" style="stroke:#181818;stroke-width:0.5;" width="223.5176" x="82.6641" y="577.1016"/><text fill="#000000" font-family="sans-serif" font-size="12" lengthAdjust="spacing" textLength="193.5176" x="97.6641" y="603.2402">Display "Device not recognized"</text><ellipse cx="194.4229" cy="655.5859" fill="none" rx="11" ry="11" style="stroke:#222222;stroke-width:1;"/><ellipse cx="194.4229" cy="655.5859" fill="#222222" rx="6" ry="6" style="stroke:#222222;stroke-width:1;"/><polygon fill="#F1F1F1" points="135.3091,523.6992,253.5366,523.6992,265.5366,535.6992,253.5366,547.6992,135.3091,547.6992,123.3091,535.6992,135.3091,523.6992" style="stroke:#181818;stroke-width:0.5;"/><text fill="#000000" font-family="sans-serif" font-size="11" lengthAdjust="spacing" textLength="23.5415" x="210.416" y="562.9097">[No]</text><text fill="#000000" font-family="sans-serif" font-size="11" lengthAdjust="spacing" textLength="94.2412" x="147.3022" y="539.5073">Device matches?</text><text fill="#000000" font-family="sans-serif" font-size="11" lengthAdjust="spacing" textLength="27.8008" x="277.5298" y="528.105">[Yes]</text><rect fill="#F1F1F1" height="57.9375" rx="12.5" ry="12.5" style="stroke:#181818;stroke-width:0.5;" width="119.7363" x="134.5547" y="708.5859"/><text fill="#000000" font-family="sans-serif" font-size="12" lengthAdjust="spacing" textLength="89.2441" x="149.5547" y="734.7246">Call ip-api.com</text><text fill="#000000" font-family="sans-serif" font-size="12" lengthAdjust="spacing" textLength="89.7363" x="149.5547" y="748.6934">with student IP</text><rect fill="#F1F1F1" height="43.9688" rx="12.5" ry="12.5" style="stroke:#181818;stroke-width:0.5;" width="248.1738" x="70.3359" y="851.5352"/><text fill="#000000" font-family="sans-serif" font-size="12" lengthAdjust="spacing" textLength="218.1738" x="85.3359" y="877.6738">Display "Location verification failed"</text><ellipse cx="194.4229" cy="927.1172" fill="none" rx="11" ry="11" style="stroke:#222222;stroke-width:1;"/><ellipse cx="194.4229" cy="927.1172" fill="#222222" rx="6" ry="6" style="stroke:#222222;stroke-width:1;"/><polygon fill="#F1F1F1" points="119.9692,786.5234,268.8765,786.5234,280.8765,804.3281,268.8765,822.1328,119.9692,822.1328,107.9692,804.3281,119.9692,786.5234" style="stroke:#181818;stroke-width:0.5;"/><text fill="#000000" font-family="sans-serif" font-size="11" lengthAdjust="spacing" textLength="23.5415" x="210.416" y="837.3433">[No]</text><text fill="#000000" font-family="sans-serif" font-size="11" lengthAdjust="spacing" textLength="124.9209" x="131.9624" y="801.7339">Country = Kuwait AND</text><text fill="#000000" font-family="sans-serif" font-size="11" lengthAdjust="spacing" textLength="80.3838" x="131.9624" y="814.5386">no VPN/proxy?</text><text fill="#000000" font-family="sans-serif" font-size="11" lengthAdjust="spacing" textLength="27.8008" x="292.8696" y="796.7339">[Yes]</text><rect fill="#F1F1F1" height="43.9688" rx="12.5" ry="12.5" style="stroke:#181818;stroke-width:0.5;" width="248.1738" x="70.3359" y="1045.1289"/><text fill="#000000" font-family="sans-serif" font-size="12" lengthAdjust="spacing" textLength="218.1738" x="85.3359" y="1071.2676">Display "Location verification failed"</text><ellipse cx="194.4229" cy="1120.7109" fill="none" rx="11" ry="11" style="stroke:#222222;stroke-width:1;"/><ellipse cx="194.4229" cy="1120.7109" fill="#222222" rx="6" ry="6" style="stroke:#222222;stroke-width:1;"/><polygon fill="#F1F1F1" points="120.8367,980.1172,268.009,980.1172,280.009,997.9219,268.009,1015.7266,120.8367,1015.7266,108.8367,997.9219,120.8367,980.1172" style="stroke:#181818;stroke-width:0.5;"/><text fill="#000000" font-family="sans-serif" font-size="11" lengthAdjust="spacing" textLength="23.5415" x="210.416" y="1030.937">[No]</text><text fill="#000000" font-family="sans-serif" font-size="11" lengthAdjust="spacing" textLength="123.186" x="132.8298" y="995.3276">GPS accuracy &#8804; 150m</text><text fill="#000000" font-family="sans-serif" font-size="11" lengthAdjust="spacing" textLength="53.2705" x="132.8298" y="1008.1323">AND &#8800; 0?</text><text fill="#000000" font-family="sans-serif" font-size="11" lengthAdjust="spacing" textLength="27.8008" x="292.0022" y="990.3276">[Yes]</text><rect fill="#F1F1F1" height="57.9375" rx="12.5" ry="12.5" style="stroke:#181818;stroke-width:0.5;" width="231.0234" x="78.9111" y="1173.7109"/><text fill="#000000" font-family="sans-serif" font-size="12" lengthAdjust="spacing" textLength="158.7246" x="93.9111" y="1199.8496">Query PostGIS ST_DWithin</text><text fill="#000000" font-family="sans-serif" font-size="12" lengthAdjust="spacing" textLength="201.0234" x="93.9111" y="1213.8184">(GPS vs geofence + 15m margin)</text><rect fill="#F1F1F1" height="43.9688" rx="12.5" ry="12.5" style="stroke:#181818;stroke-width:0.5;" width="231.1758" x="78.835" y="1305.0508"/><text fill="#000000" font-family="sans-serif" font-size="12" lengthAdjust="spacing" textLength="201.1758" x="93.835" y="1331.1895">Display "Outside classroom area"</text><ellipse cx="194.4229" cy="1383.5352" fill="none" rx="11" ry="11" style="stroke:#222222;stroke-width:1;"/><ellipse cx="194.4229" cy="1383.5352" fill="#222222" rx="6" ry="6" style="stroke:#222222;stroke-width:1;"/><polygon fill="#F1F1F1" points="134.686,1251.6484,254.1597,1251.6484,266.1597,1263.6484,254.1597,1275.6484,134.686,1275.6484,122.686,1263.6484,134.686,1251.6484" style="stroke:#181818;stroke-width:0.5;"/><text fill="#000000" font-family="sans-serif" font-size="11" lengthAdjust="spacing" textLength="23.5415" x="210.416" y="1290.8589">[No]</text><text fill="#000000" font-family="sans-serif" font-size="11" lengthAdjust="spacing" textLength="95.4873" x="146.6792" y="1267.4565">Within geofence?</text><text fill="#000000" font-family="sans-serif" font-size="11" lengthAdjust="spacing" textLength="27.8008" x="278.1528" y="1256.0542">[Yes]</text><rect fill="#555555" height="6" rx="2.5" ry="2.5" style="stroke:#555555;stroke-width:1;" width="356.8457" x="16" y="1436.5352"/><rect fill="#F1F1F1" height="85.875" rx="12.5" ry="12.5" style="stroke:#181818;stroke-width:0.5;" width="169.6055" x="28" y="1462.5352"/><text fill="#000000" font-family="sans-serif" font-size="12" lengthAdjust="spacing" textLength="114.334" x="43" y="1488.6738">Record attendance</text><text fill="#000000" font-family="sans-serif" font-size="12" lengthAdjust="spacing" textLength="139.6055" x="43" y="1502.6426">(student ID, session ID,</text><text fill="#000000" font-family="sans-serif" font-size="12" lengthAdjust="spacing" textLength="118.7285" x="43" y="1516.6113">timestamp, GPS, IP,</text><text fill="#000000" font-family="sans-serif" font-size="12" lengthAdjust="spacing" textLength="138.498" x="43" y="1530.5801">accuracy, device hash)</text><rect fill="#F1F1F1" height="57.9375" rx="12.5" ry="12.5" style="stroke:#181818;stroke-width:0.5;" width="135.2402" x="225.6055" y="1476.5039"/><text fill="#000000" font-family="sans-serif" font-size="12" lengthAdjust="spacing" textLength="105.2402" x="240.6055" y="1502.6426">Log scan attempt</text><text fill="#000000" font-family="sans-serif" font-size="12" lengthAdjust="spacing" textLength="68.584" x="240.6055" y="1516.6113">to audit log</text><rect fill="#555555" height="6" rx="2.5" ry="2.5" style="stroke:#555555;stroke-width:1;" width="356.8457" x="16" y="1568.4102"/><rect fill="#F1F1F1" height="43.9688" rx="12.5" ry="12.5" style="stroke:#181818;stroke-width:0.5;" width="158.4082" x="115.2188" y="1659.4219"/><text fill="#000000" font-family="sans-serif" font-size="12" lengthAdjust="spacing" textLength="128.4082" x="130.2188" y="1685.5605">Queue warning email</text><polygon fill="#F1F1F1" points="119.032,1594.4102,269.8137,1594.4102,281.8137,1612.2148,269.8137,1630.0195,119.032,1630.0195,107.032,1612.2148,119.032,1594.4102" style="stroke:#181818;stroke-width:0.5;"/><text fill="#000000" font-family="sans-serif" font-size="11" lengthAdjust="spacing" textLength="27.8008" x="210.416" y="1645.23">[Yes]</text><text fill="#000000" font-family="sans-serif" font-size="11" lengthAdjust="spacing" textLength="126.7954" x="131.0251" y="1609.6206">Attendance % dropped</text><text fill="#000000" font-family="sans-serif" font-size="11" lengthAdjust="spacing" textLength="93.9136" x="131.0251" y="1622.4253">below threshold?</text><text fill="#000000" font-family="sans-serif" font-size="11" lengthAdjust="spacing" textLength="23.5415" x="293.8069" y="1604.6206">[No]</text><polygon fill="#F1F1F1" points="194.4229,1723.3906,206.4229,1735.3906,194.4229,1747.3906,182.4229,1735.3906,194.4229,1723.3906" style="stroke:#181818;stroke-width:0.5;"/><rect fill="#F1F1F1" height="43.9688" rx="12.5" ry="12.5" style="stroke:#181818;stroke-width:0.5;" width="229.7402" x="79.5527" y="1767.3906"/><text fill="#000000" font-family="sans-serif" font-size="12" lengthAdjust="spacing" textLength="199.7402" x="94.5527" y="1793.5293">Display "Attendance recorded" &#10003;</text><ellipse cx="194.4229" cy="1842.3594" fill="none" rx="11" ry="11" style="stroke:#222222;stroke-width:1;"/><ellipse cx="194.4229" cy="1842.3594" fill="#222222" rx="6" ry="6" style="stroke:#222222;stroke-width:1;"/><line style="stroke:#181818;stroke-width:1;" x1="194.4229" x2="194.4229" y1="35" y2="55"/><polygon fill="#181818" points="190.4229,45,194.4229,55,198.4229,45,194.4229,49" style="stroke:#181818;stroke-width:1;"/><line style="stroke:#181818;stroke-width:1;" x1="194.4229" x2="194.4229" y1="98.9688" y2="118.9688"/><polygon fill="#181818" points="190.4229,108.9688,194.4229,118.9688,198.4229,108.9688,194.4229,112.9688" style="stroke:#181818;stroke-width:1;"/><line style="stroke:#181818;stroke-width:1;" x1="194.4229" x2="194.4229" y1="176.9063" y2="196.9063"/><polygon fill="#181818" points="190.4229,186.9063,194.4229,196.9063,198.4229,186.9063,194.4229,190.9063" style="stroke:#181818;stroke-width:1;"/><line style="stroke:#181818;stroke-width:1;" x1="194.4229" x2="194.4229" y1="358.2461" y2="381.7617"/><polygon fill="#181818" points="190.4229,371.7617,194.4229,381.7617,198.4229,371.7617,194.4229,375.7617" style="stroke:#181818;stroke-width:1;"/><line style="stroke:#181818;stroke-width:1;" x1="194.4229" x2="194.4229" y1="284.875" y2="314.2773"/><polygon fill="#181818" points="190.4229,304.2773,194.4229,314.2773,198.4229,304.2773,194.4229,308.2773" style="stroke:#181818;stroke-width:1;"/><line style="stroke:#181818;stroke-width:1;" x1="261.7312" x2="338.2891" y1="272.875" y2="272.875"/><polygon fill="#181818" points="334.2891,351.7617,338.2891,361.7617,342.2891,351.7617,338.2891,355.7617" style="stroke:#181818;stroke-width:1;"/><line style="stroke:#181818;stroke-width:1;" x1="338.2891" x2="338.2891" y1="272.875" y2="425.7617"/><line style="stroke:#181818;stroke-width:1;" x1="338.2891" x2="194.4229" y1="425.7617" y2="425.7617"/><line style="stroke:#181818;stroke-width:1;" x1="194.4229" x2="194.4229" y1="425.7617" y2="445.7617"/><polygon fill="#181818" points="190.4229,435.7617,194.4229,445.7617,198.4229,435.7617,194.4229,439.7617" style="stroke:#181818;stroke-width:1;"/><line style="stroke:#181818;stroke-width:1;" x1="194.4229" x2="194.4229" y1="240.875" y2="260.875"/><polygon fill="#181818" points="190.4229,250.875,194.4229,260.875,198.4229,250.875,194.4229,254.875" style="stroke:#181818;stroke-width:1;"/><line style="stroke:#181818;stroke-width:1;" x1="194.4229" x2="194.4229" y1="621.0703" y2="644.5859"/><polygon fill="#181818" points="190.4229,634.5859,194.4229,644.5859,198.4229,634.5859,194.4229,638.5859" style="stroke:#181818;stroke-width:1;"/><line style="stroke:#181818;stroke-width:1;" x1="194.4229" x2="194.4229" y1="547.6992" y2="577.1016"/><polygon fill="#181818" points="190.4229,567.1016,194.4229,577.1016,198.4229,567.1016,194.4229,571.1016" style="stroke:#181818;stroke-width:1;"/><line style="stroke:#181818;stroke-width:1;" x1="265.5366" x2="316.1816" y1="535.6992" y2="535.6992"/><polygon fill="#181818" points="312.1816,614.5859,316.1816,624.5859,320.1816,614.5859,316.1816,618.5859" style="stroke:#181818;stroke-width:1;"/><line style="stroke:#181818;stroke-width:1;" x1="316.1816" x2="316.1816" y1="535.6992" y2="688.5859"/><line style="stroke:#181818;stroke-width:1;" x1="316.1816" x2="194.4229" y1="688.5859" y2="688.5859"/><line style="stroke:#181818;stroke-width:1;" x1="194.4229" x2="194.4229" y1="688.5859" y2="708.5859"/><polygon fill="#181818" points="190.4229,698.5859,194.4229,708.5859,198.4229,698.5859,194.4229,702.5859" style="stroke:#181818;stroke-width:1;"/><line style="stroke:#181818;stroke-width:1;" x1="194.4229" x2="194.4229" y1="503.6992" y2="523.6992"/><polygon fill="#181818" points="190.4229,513.6992,194.4229,523.6992,198.4229,513.6992,194.4229,517.6992" style="stroke:#181818;stroke-width:1;"/><line style="stroke:#181818;stroke-width:1;" x1="194.4229" x2="194.4229" y1="895.5039" y2="916.1172"/><polygon fill="#181818" points="190.4229,906.1172,194.4229,916.1172,198.4229,906.1172,194.4229,910.1172" style="stroke:#181818;stroke-width:1;"/><line style="stroke:#181818;stroke-width:1;" x1="194.4229" x2="194.4229" y1="822.1328" y2="851.5352"/><polygon fill="#181818" points="190.4229,841.5352,194.4229,851.5352,198.4229,841.5352,194.4229,845.5352" style="stroke:#181818;stroke-width:1;"/><line style="stroke:#181818;stroke-width:1;" x1="280.8765" x2="328.5098" y1="804.3281" y2="804.3281"/><polygon fill="#181818" points="324.5098,886.1172,328.5098,896.1172,332.5098,886.1172,328.5098,890.1172" style="stroke:#181818;stroke-width:1;"/><line style="stroke:#181818;stroke-width:1;" x1="328.5098" x2="328.5098" y1="804.3281" y2="960.1172"/><line style="stroke:#181818;stroke-width:1;" x1="328.5098" x2="194.4229" y1="960.1172" y2="960.1172"/><line style="stroke:#181818;stroke-width:1;" x1="194.4229" x2="194.4229" y1="960.1172" y2="980.1172"/><polygon fill="#181818" points="190.4229,970.1172,194.4229,980.1172,198.4229,970.1172,194.4229,974.1172" style="stroke:#181818;stroke-width:1;"/><line style="stroke:#181818;stroke-width:1;" x1="194.4229" x2="194.4229" y1="766.5234" y2="786.5234"/><polygon fill="#181818" points="190.4229,776.5234,194.4229,786.5234,198.4229,776.5234,194.4229,780.5234" style="stroke:#181818;stroke-width:1;"/><line style="stroke:#181818;stroke-width:1;" x1="194.4229" x2="194.4229" y1="1089.0977" y2="1109.7109"/><polygon fill="#181818" points="190.4229,1099.7109,194.4229,1109.7109,198.4229,1099.7109,194.4229,1103.7109" style="stroke:#181818;stroke-width:1;"/><line style="stroke:#181818;stroke-width:1;" x1="194.4229" x2="194.4229" y1="1015.7266" y2="1045.1289"/><polygon fill="#181818" points="190.4229,1035.1289,194.4229,1045.1289,198.4229,1035.1289,194.4229,1039.1289" style="stroke:#181818;stroke-width:1;"/><line style="stroke:#181818;stroke-width:1;" x1="280.009" x2="328.5098" y1="997.9219" y2="997.9219"/><polygon fill="#181818" points="324.5098,1079.7109,328.5098,1089.7109,332.5098,1079.7109,328.5098,1083.7109" style="stroke:#181818;stroke-width:1;"/><line style="stroke:#181818;stroke-width:1;" x1="328.5098" x2="328.5098" y1="997.9219" y2="1153.7109"/><line style="stroke:#181818;stroke-width:1;" x1="328.5098" x2="194.4229" y1="1153.7109" y2="1153.7109"/><line style="stroke:#181818;stroke-width:1;" x1="194.4229" x2="194.4229" y1="1153.7109" y2="1173.7109"/><polygon fill="#181818" points="190.4229,1163.7109,194.4229,1173.7109,198.4229,1163.7109,194.4229,1167.7109" style="stroke:#181818;stroke-width:1;"/><line style="stroke:#181818;stroke-width:1;" x1="194.4229" x2="194.4229" y1="1349.0195" y2="1372.5352"/><polygon fill="#181818" points="190.4229,1362.5352,194.4229,1372.5352,198.4229,1362.5352,194.4229,1366.5352" style="stroke:#181818;stroke-width:1;"/><line style="stroke:#181818;stroke-width:1;" x1="194.4229" x2="194.4229" y1="1275.6484" y2="1305.0508"/><polygon fill="#181818" points="190.4229,1295.0508,194.4229,1305.0508,198.4229,1295.0508,194.4229,1299.0508" style="stroke:#181818;stroke-width:1;"/><line style="stroke:#181818;stroke-width:1;" x1="266.1597" x2="320.0107" y1="1263.6484" y2="1263.6484"/><polygon fill="#181818" points="316.0107,1342.5352,320.0107,1352.5352,324.0107,1342.5352,320.0107,1346.5352" style="stroke:#181818;stroke-width:1;"/><line style="stroke:#181818;stroke-width:1;" x1="320.0107" x2="320.0107" y1="1263.6484" y2="1416.5352"/><line style="stroke:#181818;stroke-width:1;" x1="320.0107" x2="194.4229" y1="1416.5352" y2="1416.5352"/><line style="stroke:#181818;stroke-width:1;" x1="194.4229" x2="194.4229" y1="1416.5352" y2="1436.5352"/><polygon fill="#181818" points="190.4229,1426.5352,194.4229,1436.5352,198.4229,1426.5352,194.4229,1430.5352" style="stroke:#181818;stroke-width:1;"/><line style="stroke:#181818;stroke-width:1;" x1="194.4229" x2="194.4229" y1="1231.6484" y2="1251.6484"/><polygon fill="#181818" points="190.4229,1241.6484,194.4229,1251.6484,198.4229,1241.6484,194.4229,1245.6484" style="stroke:#181818;stroke-width:1;"/><line style="stroke:#181818;stroke-width:1;" x1="112.8027" x2="112.8027" y1="1442.5352" y2="1462.5352"/><polygon fill="#181818" points="108.8027,1452.5352,112.8027,1462.5352,116.8027,1452.5352,112.8027,1456.5352" style="stroke:#181818;stroke-width:1;"/><line style="stroke:#181818;stroke-width:1;" x1="293.2256" x2="293.2256" y1="1442.5352" y2="1476.5039"/><polygon fill="#181818" points="289.2256,1466.5039,293.2256,1476.5039,297.2256,1466.5039,293.2256,1470.5039" style="stroke:#181818;stroke-width:1;"/><line style="stroke:#181818;stroke-width:1;" x1="112.8027" x2="112.8027" y1="1548.4102" y2="1568.4102"/><polygon fill="#181818" points="108.8027,1558.4102,112.8027,1568.4102,116.8027,1558.4102,112.8027,1562.4102" style="stroke:#181818;stroke-width:1;"/><line style="stroke:#181818;stroke-width:1;" x1="293.2256" x2="293.2256" y1="1534.4414" y2="1568.4102"/><polygon fill="#181818" points="289.2256,1558.4102,293.2256,1568.4102,297.2256,1558.4102,293.2256,1562.4102" style="stroke:#181818;stroke-width:1;"/><line style="stroke:#181818;stroke-width:1;" x1="194.4229" x2="194.4229" y1="1630.0195" y2="1659.4219"/><polygon fill="#181818" points="190.4229,1649.4219,194.4229,1659.4219,198.4229,1649.4219,194.4229,1653.4219" style="stroke:#181818;stroke-width:1;"/><line style="stroke:#181818;stroke-width:1;" x1="281.8137" x2="293.8137" y1="1612.2148" y2="1612.2148"/><polygon fill="#181818" points="289.8137,1673.5039,293.8137,1683.5039,297.8137,1673.5039,293.8137,1677.5039" style="stroke:#181818;stroke-width:1;"/><line style="stroke:#181818;stroke-width:1;" x1="293.8137" x2="293.8137" y1="1612.2148" y2="1735.3906"/><line style="stroke:#181818;stroke-width:1;" x1="293.8137" x2="206.4229" y1="1735.3906" y2="1735.3906"/><polygon fill="#181818" points="216.4229,1731.3906,206.4229,1735.3906,216.4229,1739.3906,212.4229,1735.3906" style="stroke:#181818;stroke-width:1;"/><line style="stroke:#181818;stroke-width:1;" x1="194.4229" x2="194.4229" y1="1703.3906" y2="1723.3906"/><polygon fill="#181818" points="190.4229,1713.3906,194.4229,1723.3906,198.4229,1713.3906,194.4229,1717.3906" style="stroke:#181818;stroke-width:1;"/><line style="stroke:#181818;stroke-width:1;" x1="194.4229" x2="194.4229" y1="1574.4102" y2="1594.4102"/><polygon fill="#181818" points="190.4229,1584.4102,194.4229,1594.4102,198.4229,1584.4102,194.4229,1588.4102" style="stroke:#181818;stroke-width:1;"/><line style="stroke:#181818;stroke-width:1;" x1="194.4229" x2="194.4229" y1="1747.3906" y2="1767.3906"/><polygon fill="#181818" points="190.4229,1757.3906,194.4229,1767.3906,198.4229,1757.3906,194.4229,1761.3906" style="stroke:#181818;stroke-width:1;"/><line style="stroke:#181818;stroke-width:1;" x1="194.4229" x2="194.4229" y1="1811.3594" y2="1831.3594"/><polygon fill="#181818" points="190.4229,1821.3594,194.4229,1831.3594,198.4229,1821.3594,194.4229,1825.3594" style="stroke:#181818;stroke-width:1;"/><?plantuml-src jPJ1RXD138Rl-nHM9L0h0fH3XPG8eQYHgeggf0q28OAGC-FT7MLtFCpC9WqdhZt3aGC7dYnFWcUJB1KSqWktdR7N_lpRdZ0trg776cgsh4hFDK7q3MMXiuGIDI-DBI37AjorMDOKoC7pupkN7ktydqk7MgS89raM8lgOPVr9R3JP215TW8E9GdimoFf35Sq28u72cZp2mwdLf2GFN5rBb5N5gCNjcZut52ASZIUG2pJCF2y3-K6McHmE8Nb7dfE51LP6lmGuWbZAKKmVBlcZd3E0_iW4L-4A3iITRfpnf67zzJiiqKJ8sOEdt5CeXGmWH7OPYG9jaFSKsYXajScbd0lcUUD0qy8eWboA9U-yiN5gMq2D4MSOg2CSRJnhZAgai9Tmwsuv2fJYmfelfE_1TOfL1SOzHcUUAAwdTcbYAVzin3yVTpodtDZeL_02NZLj_SFB4S3KWkI4j-FBfyxppMelvmKhZ8P5UF8cDzj3ZgQw3-u69NKLbMeygXMiRt_1ivFZUiEIeDQtF-7uFuFqhneICSOSujdv12PlFetUYN36JkrXmbi4A8XpijAJHy8d2uI-CFQeqtFZtddjvNtTn61apbM58NYMaK5Fk9zKndIU0btBL7WD6ACOK38AQTVcKGy2XP0KaE-fZQQMzS7QzPBOFPa3kTn9tjjDSOcXb89I1i02ZKrvBhY08DlQPggTp7Tam4RBn5HS318Mj4nR7OOT43m0xTavMRAsbpEgU2cQf0tZwgybtLKf6QKL3SbEUfkU4AgbXOC_ScobtFMjq_DENjzA8ss7zOzlW_G4iViD?></g></svg>