<svg xmlns="http://www.w3.org/2000/svg" viewBox="0 0 1600 1400" style="width: 100%; height: 100%; background-color: rgb(248, 250, 252); transform-origin: left top 0px;"><defs><pattern id="grid" width="40" height="40" patternUnits="userSpaceOnUse"><path d="M 40 0 L 0 0 0 40" fill="none" stroke="#e2e8f0" stroke-width="1"/></pattern><marker id="arrow" viewBox="0 0 10 10" refX="9" refY="5" markerWidth="6" markerHeight="6" orient="auto-start-reverse"><path d="M 0 1.5 L 10 5 L 0 8.5 z" fill="#475569"/></marker></defs><rect width="100%" height="100%" fill="url(#grid)"/><g transform="translate(25, 55)" class=""><path d="M 0 30 L 0 0 L 250 0 L 265 30 Z" fill="#f1f5f9" stroke="#94a3b8" stroke-width="2"/><rect x="0" y="30" width="850" height="320" fill="transparent" stroke="#94a3b8" stroke-width="2" stroke-dasharray="6"/><text x="15" y="20" text-anchor="start" font-size="16" font-weight="bold" fill="#475569" class="pointer-events-none">Tier 1: Client (View Layer)</text></g><g transform="translate(25, 470)" class=""><path d="M 0 30 L 0 0 L 250 0 L 265 30 Z" fill="#f1f5f9" stroke="#94a3b8" stroke-width="2"/><rect x="0" y="30" width="850" height="470" fill="transparent" stroke="#94a3b8" stroke-width="2" stroke-dasharray="6"/><text x="15" y="20" text-anchor="start" font-size="16" font-weight="bold" fill="#475569" class="pointer-events-none">Tier 2: Server (Controller Layer)</text></g><g transform="translate(25, 1050)" class=""><path d="M 0 30 L 0 0 L 250 0 L 265 30 Z" fill="#f1f5f9" stroke="#94a3b8" stroke-width="2"/><rect x="0" y="30" width="850" height="170" fill="transparent" stroke="#94a3b8" stroke-width="2" stroke-dasharray="6"/><text x="15" y="20" text-anchor="start" font-size="16" font-weight="bold" fill="#475569" class="pointer-events-none">Tier 3: Model Layer</text></g><g transform="translate(1110, 150)" class=""><path d="M 0 30 L 0 0 L 250 0 L 265 30 Z" fill="#f1f5f9" stroke="#94a3b8" stroke-width="2"/><rect x="0" y="30" width="280" height="870" fill="transparent" stroke="#94a3b8" stroke-width="2" stroke-dasharray="6"/><text x="15" y="20" text-anchor="start" font-size="16" font-weight="bold" fill="#475569" class="pointer-events-none">External Services</text></g><g transform="translate(75, 105)" class=""><rect width="350" height="250" rx="8" fill="#e2e8f0" stroke="#64748b" stroke-width="2.5"/><text x="15" y="24" text-anchor="start" font-size="14" font-weight="bold" fill="#1e293b" class="pointer-events-none"><tspan x="15" dy="0" fill="#64748b">«device»</tspan><tspan x="15" dy="18" fill="#1e293b">Student Browser (mobile)</tspan></text></g><g transform="translate(475, 105)" class=""><rect width="350" height="250" rx="8" fill="#e2e8f0" stroke="#64748b" stroke-width="2.5"/><text x="15" y="24" text-anchor="start" font-size="14" font-weight="bold" fill="#1e293b" class="pointer-events-none"><tspan x="15" dy="0" fill="#64748b">«device»</tspan><tspan x="15" dy="18" fill="#1e293b">Instructor Browser (laptop)</tspan></text></g><g transform="translate(65, 520)" class=""><rect width="550" height="420" rx="8" fill="#e2e8f0" stroke="#64748b" stroke-width="2.5"/><text x="15" y="24" text-anchor="start" font-size="14" font-weight="bold" fill="#1e293b" class="pointer-events-none"><tspan x="15" dy="0" fill="#64748b">«execution environment»</tspan><tspan x="15" dy="18" fill="#1e293b">Application Server (Node.js)</tspan></text></g><g transform="translate(630, 520)" class=""><rect width="220" height="420" rx="8" fill="#e2e8f0" stroke="#64748b" stroke-width="2.5"/><text x="15" y="24" text-anchor="start" font-size="14" font-weight="bold" fill="#1e293b" class="pointer-events-none"><tspan x="15" dy="0" fill="#64748b">«module»</tspan><tspan x="15" dy="18" fill="#1e293b">Scan Verifier</tspan></text></g><g transform="translate(60, 1090)" class=""><rect width="780" height="120" rx="8" fill="#e2e8f0" stroke="#64748b" stroke-width="2.5"/><text x="15" y="24" text-anchor="start" font-size="14" font-weight="bold" fill="#1e293b" class="pointer-events-none"><tspan x="15" dy="0" fill="#64748b">«database»</tspan><tspan x="15" dy="18" fill="#1e293b">PostgreSQL + PostGIS (Neon)</tspan></text></g><g transform="translate(150, 175)" class=""><rect width="200" height="50" rx="4" fill="#ffffff" stroke="#3b82f6" stroke-width="2" class="shadow-sm"/><rect x="-6" y="11" width="12" height="10" fill="#ffffff" stroke="#3b82f6" stroke-width="2"/><rect x="-6" y="29" width="12" height="10" fill="#ffffff" stroke="#3b82f6" stroke-width="2"/><text x="100" y="30" text-anchor="middle" font-size="14" font-weight="bold" fill="#0f172a" class="pointer-events-none"><tspan x="100" dy="0">Scan Interface</tspan></text></g><g transform="translate(150, 265)" class=""><rect width="200" height="50" rx="4" fill="#ffffff" stroke="#3b82f6" stroke-width="2" class="shadow-sm"/><rect x="-6" y="11" width="12" height="10" fill="#ffffff" stroke="#3b82f6" stroke-width="2"/><rect x="-6" y="29" width="12" height="10" fill="#ffffff" stroke="#3b82f6" stroke-width="2"/><text x="100" y="30" text-anchor="middle" font-size="14" font-weight="bold" fill="#0f172a" class="pointer-events-none"><tspan x="100" dy="0">Student Dashboard</tspan></text></g><g transform="translate(550, 155)" class=""><rect width="200" height="50" rx="4" fill="#ffffff" stroke="#3b82f6" stroke-width="2" class="shadow-sm"/><rect x="-6" y="11" width="12" height="10" fill="#ffffff" stroke="#3b82f6" stroke-width="2"/><rect x="-6" y="29" width="12" height="10" fill="#ffffff" stroke="#3b82f6" stroke-width="2"/><text x="100" y="30" text-anchor="middle" font-size="14" font-weight="bold" fill="#0f172a" class="pointer-events-none"><tspan x="100" dy="0">QR Display</tspan></text></g><g transform="translate(550, 235)" class=""><rect width="200" height="50" rx="4" fill="#ffffff" stroke="#3b82f6" stroke-width="2" class="shadow-sm"/><rect x="-6" y="11" width="12" height="10" fill="#ffffff" stroke="#3b82f6" stroke-width="2"/><rect x="-6" y="29" width="12" height="10" fill="#ffffff" stroke="#3b82f6" stroke-width="2"/><text x="100" y="30" text-anchor="middle" font-size="14" font-weight="bold" fill="#0f172a" class="pointer-events-none"><tspan x="100" dy="0">Instructor Dashboard</tspan></text></g><g transform="translate(550, 315)" class=""><rect width="200" height="50" rx="4" fill="#ffffff" stroke="#3b82f6" stroke-width="2" class="shadow-sm"/><rect x="-6" y="11" width="12" height="10" fill="#ffffff" stroke="#3b82f6" stroke-width="2"/><rect x="-6" y="29" width="12" height="10" fill="#ffffff" stroke="#3b82f6" stroke-width="2"/><text x="100" y="30" text-anchor="middle" font-size="14" font-weight="bold" fill="#0f172a" class="pointer-events-none"><tspan x="100" dy="0">Reports View</tspan></text></g><g transform="translate(90, 585)" class=""><rect width="200" height="50" rx="4" fill="#ffffff" stroke="#3b82f6" stroke-width="2" class="shadow-sm"/><rect x="-6" y="11" width="12" height="10" fill="#ffffff" stroke="#3b82f6" stroke-width="2"/><rect x="-6" y="29" width="12" height="10" fill="#ffffff" stroke="#3b82f6" stroke-width="2"/><text x="100" y="30" text-anchor="middle" font-size="14" font-weight="bold" fill="#0f172a" class="pointer-events-none"><tspan x="100" dy="0">Auth Controller</tspan></text></g><g transform="translate(390, 585)" class=""><rect width="200" height="50" rx="4" fill="#ffffff" stroke="#3b82f6" stroke-width="2" class="shadow-sm"/><rect x="-6" y="11" width="12" height="10" fill="#ffffff" stroke="#3b82f6" stroke-width="2"/><rect x="-6" y="29" width="12" height="10" fill="#ffffff" stroke="#3b82f6" stroke-width="2"/><text x="100" y="30" text-anchor="middle" font-size="14" font-weight="bold" fill="#0f172a" class="pointer-events-none"><tspan x="100" dy="0">Course Manager</tspan></text></g><g transform="translate(90, 680)" class=""><rect width="200" height="60" rx="4" fill="#ffffff" stroke="#3b82f6" stroke-width="2" class="shadow-sm"/><rect x="-6" y="16" width="12" height="10" fill="#ffffff" stroke="#3b82f6" stroke-width="2"/><rect x="-6" y="34" width="12" height="10" fill="#ffffff" stroke="#3b82f6" stroke-width="2"/><text x="100" y="35" text-anchor="middle" font-size="14" font-weight="bold" fill="#0f172a" class="pointer-events-none"><tspan x="100" dy="0">QR Generator</tspan><tspan x="100" dy="16">(WebSocket)</tspan></text></g><g transform="translate(390, 685)" class=""><rect width="200" height="50" rx="4" fill="#ffffff" stroke="#3b82f6" stroke-width="2" class="shadow-sm"/><rect x="-6" y="11" width="12" height="10" fill="#ffffff" stroke="#3b82f6" stroke-width="2"/><rect x="-6" y="29" width="12" height="10" fill="#ffffff" stroke="#3b82f6" stroke-width="2"/><text x="100" y="30" text-anchor="middle" font-size="14" font-weight="bold" fill="#0f172a" class="pointer-events-none"><tspan x="100" dy="0">Report Engine</tspan></text></g><g transform="translate(90, 785)" class=""><rect width="200" height="50" rx="4" fill="#ffffff" stroke="#3b82f6" stroke-width="2" class="shadow-sm"/><rect x="-6" y="11" width="12" height="10" fill="#ffffff" stroke="#3b82f6" stroke-width="2"/><rect x="-6" y="29" width="12" height="10" fill="#ffffff" stroke="#3b82f6" stroke-width="2"/><text x="100" y="30" text-anchor="middle" font-size="14" font-weight="bold" fill="#0f172a" class="pointer-events-none"><tspan x="100" dy="0">Notification Service</tspan></text></g><g transform="translate(390, 785)" class=""><rect width="200" height="50" rx="4" fill="#ffffff" stroke="#3b82f6" stroke-width="2" class="shadow-sm"/><rect x="-6" y="11" width="12" height="10" fill="#ffffff" stroke="#3b82f6" stroke-width="2"/><rect x="-6" y="29" width="12" height="10" fill="#ffffff" stroke="#3b82f6" stroke-width="2"/><text x="100" y="30" text-anchor="middle" font-size="14" font-weight="bold" fill="#0f172a" class="pointer-events-none"><tspan x="100" dy="0">Override Handler</tspan></text></g><g transform="translate(650, 565)" class=""><rect width="180" height="50" rx="4" fill="#ffffff" stroke="#3b82f6" stroke-width="2" class="shadow-sm"/><rect x="-6" y="11" width="12" height="10" fill="#ffffff" stroke="#3b82f6" stroke-width="2"/><rect x="-6" y="29" width="12" height="10" fill="#ffffff" stroke="#3b82f6" stroke-width="2"/><text x="90" y="30" text-anchor="middle" font-size="14" font-weight="bold" fill="#0f172a" class="pointer-events-none"><tspan x="90" dy="0">QR Validator</tspan></text></g><g transform="translate(650, 635)" class=""><rect width="180" height="50" rx="4" fill="#ffffff" stroke="#3b82f6" stroke-width="2" class="shadow-sm"/><rect x="-6" y="11" width="12" height="10" fill="#ffffff" stroke="#3b82f6" stroke-width="2"/><rect x="-6" y="29" width="12" height="10" fill="#ffffff" stroke="#3b82f6" stroke-width="2"/><text x="90" y="30" text-anchor="middle" font-size="14" font-weight="bold" fill="#0f172a" class="pointer-events-none"><tspan x="90" dy="0">Device Checker</tspan></text></g><g transform="translate(650, 705)" class=""><rect width="180" height="50" rx="4" fill="#ffffff" stroke="#3b82f6" stroke-width="2" class="shadow-sm"/><rect x="-6" y="11" width="12" height="10" fill="#ffffff" stroke="#3b82f6" stroke-width="2"/><rect x="-6" y="29" width="12" height="10" fill="#ffffff" stroke="#3b82f6" stroke-width="2"/><text x="90" y="30" text-anchor="middle" font-size="14" font-weight="bold" fill="#0f172a" class="pointer-events-none"><tspan x="90" dy="0">IP Validator</tspan></text></g><g transform="translate(650, 775)" class=""><rect width="180" height="50" rx="4" fill="#ffffff" stroke="#3b82f6" stroke-width="2" class="shadow-sm"/><rect x="-6" y="11" width="12" height="10" fill="#ffffff" stroke="#3b82f6" stroke-width="2"/><rect x="-6" y="29" width="12" height="10" fill="#ffffff" stroke="#3b82f6" stroke-width="2"/><text x="90" y="30" text-anchor="middle" font-size="14" font-weight="bold" fill="#0f172a" class="pointer-events-none"><tspan x="90" dy="0">GPS Accuracy Checker</tspan></text></g><g transform="translate(650, 845)" class=""><rect width="180" height="50" rx="4" fill="#ffffff" stroke="#3b82f6" stroke-width="2" class="shadow-sm"/><rect x="-6" y="11" width="12" height="10" fill="#ffffff" stroke="#3b82f6" stroke-width="2"/><rect x="-6" y="29" width="12" height="10" fill="#ffffff" stroke="#3b82f6" stroke-width="2"/><text x="90" y="30" text-anchor="middle" font-size="14" font-weight="bold" fill="#0f172a" class="pointer-events-none"><tspan x="90" dy="0">Geofence Checker</tspan></text></g><g transform="translate(75, 1135)" class=""><rect width="110" height="50" rx="4" fill="#ffffff" stroke="#3b82f6" stroke-width="2" class="shadow-sm"/><rect x="-6" y="11" width="12" height="10" fill="#ffffff" stroke="#3b82f6" stroke-width="2"/><rect x="-6" y="29" width="12" height="10" fill="#ffffff" stroke="#3b82f6" stroke-width="2"/><text x="55" y="30" text-anchor="middle" font-size="14" font-weight="bold" fill="#0f172a" class="pointer-events-none"><tspan x="55" dy="0">Users</tspan></text></g><g transform="translate(205, 1135)" class=""><rect width="110" height="50" rx="4" fill="#ffffff" stroke="#3b82f6" stroke-width="2" class="shadow-sm"/><rect x="-6" y="11" width="12" height="10" fill="#ffffff" stroke="#3b82f6" stroke-width="2"/><rect x="-6" y="29" width="12" height="10" fill="#ffffff" stroke="#3b82f6" stroke-width="2"/><text x="55" y="30" text-anchor="middle" font-size="14" font-weight="bold" fill="#0f172a" class="pointer-events-none"><tspan x="55" dy="0">Courses</tspan></text></g><g transform="translate(335, 1135)" class=""><rect width="110" height="50" rx="4" fill="#ffffff" stroke="#3b82f6" stroke-width="2" class="shadow-sm"/><rect x="-6" y="11" width="12" height="10" fill="#ffffff" stroke="#3b82f6" stroke-width="2"/><rect x="-6" y="29" width="12" height="10" fill="#ffffff" stroke="#3b82f6" stroke-width="2"/><text x="55" y="30" text-anchor="middle" font-size="14" font-weight="bold" fill="#0f172a" class="pointer-events-none"><tspan x="55" dy="0">Sessions</tspan></text></g><g transform="translate(465, 1135)" class=""><rect width="110" height="50" rx="4" fill="#ffffff" stroke="#3b82f6" stroke-width="2" class="shadow-sm"/><rect x="-6" y="11" width="12" height="10" fill="#ffffff" stroke="#3b82f6" stroke-width="2"/><rect x="-6" y="29" width="12" height="10" fill="#ffffff" stroke="#3b82f6" stroke-width="2"/><text x="55" y="30" text-anchor="middle" font-size="14" font-weight="bold" fill="#0f172a" class="pointer-events-none"><tspan x="55" dy="0">Attendance</tspan></text></g><g transform="translate(595, 1135)" class=""><rect width="110" height="50" rx="4" fill="#ffffff" stroke="#3b82f6" stroke-width="2" class="shadow-sm"/><rect x="-6" y="11" width="12" height="10" fill="#ffffff" stroke="#3b82f6" stroke-width="2"/><rect x="-6" y="29" width="12" height="10" fill="#ffffff" stroke="#3b82f6" stroke-width="2"/><text x="55" y="30" text-anchor="middle" font-size="14" font-weight="bold" fill="#0f172a" class="pointer-events-none"><tspan x="55" dy="0">Audit Log</tspan></text></g><g transform="translate(725, 1135)" class=""><rect width="110" height="50" rx="4" fill="#ffffff" stroke="#3b82f6" stroke-width="2" class="shadow-sm"/><rect x="-6" y="11" width="12" height="10" fill="#ffffff" stroke="#3b82f6" stroke-width="2"/><rect x="-6" y="29" width="12" height="10" fill="#ffffff" stroke="#3b82f6" stroke-width="2"/><text x="55" y="30" text-anchor="middle" font-size="14" font-weight="bold" fill="#0f172a" class="pointer-events-none"><tspan x="55" dy="0">QR Tokens</tspan></text></g><g transform="translate(1140, 205)" class=""><rect width="220" height="50" rx="4" fill="#ffffff" stroke="#3b82f6" stroke-width="2" class="shadow-sm"/><rect x="-6" y="11" width="12" height="10" fill="#ffffff" stroke="#3b82f6" stroke-width="2"/><rect x="-6" y="29" width="12" height="10" fill="#ffffff" stroke="#3b82f6" stroke-width="2"/><text x="110" y="30" text-anchor="middle" font-size="14" font-weight="bold" fill="#0f172a" class="pointer-events-none"><tspan x="110" dy="0">Browser Geolocation API</tspan></text></g><g transform="translate(1140, 305)" class=""><rect width="220" height="50" rx="4" fill="#ffffff" stroke="#3b82f6" stroke-width="2" class="shadow-sm"/><rect x="-6" y="11" width="12" height="10" fill="#ffffff" stroke="#3b82f6" stroke-width="2"/><rect x="-6" y="29" width="12" height="10" fill="#ffffff" stroke="#3b82f6" stroke-width="2"/><text x="110" y="30" text-anchor="middle" font-size="14" font-weight="bold" fill="#0f172a" class="pointer-events-none"><tspan x="110" dy="0">Browser MediaDevices API</tspan></text></g><g transform="translate(1140, 705)" class=""><rect width="220" height="50" rx="4" fill="#ffffff" stroke="#3b82f6" stroke-width="2" class="shadow-sm"/><rect x="-6" y="11" width="12" height="10" fill="#ffffff" stroke="#3b82f6" stroke-width="2"/><rect x="-6" y="29" width="12" height="10" fill="#ffffff" stroke="#3b82f6" stroke-width="2"/><text x="110" y="30" text-anchor="middle" font-size="14" font-weight="bold" fill="#0f172a" class="pointer-events-none"><tspan x="110" dy="0">ip-api.com (IP API)</tspan></text></g><g transform="translate(1140, 825)" class=""><rect width="220" height="50" rx="4" fill="#ffffff" stroke="#3b82f6" stroke-width="2" class="shadow-sm"/><rect x="-6" y="11" width="12" height="10" fill="#ffffff" stroke="#3b82f6" stroke-width="2"/><rect x="-6" y="29" width="12" height="10" fill="#ffffff" stroke="#3b82f6" stroke-width="2"/><text x="110" y="30" text-anchor="middle" font-size="14" font-weight="bold" fill="#0f172a" class="pointer-events-none"><tspan x="110" dy="0">Resend (Email SMTP)</tspan></text></g><path d="M 250 355 L 250 520" fill="none" stroke="#475569" stroke-width="2.5" marker-end="url(#arrow)"/><path d="M 650 360 L 650 460 Q 650 480 630 480 L 470 480 Q 450 480 450 500 L 450 520" fill="none" stroke="#475569" stroke-width="2.5" marker-end="url(#arrow)"/><path d="M 450 940 L 450 1090" fill="none" stroke="#475569" stroke-width="2.5" marker-end="url(#arrow)"/><path d="M 425 280 L 1030 280 Q 1050 280 1050 300 L 1050 310 Q 1050 330 1070 330 L 1140 330" fill="none" stroke="#475569" stroke-width="2.5" marker-end="url(#arrow)"/><path d="M 425 230 L 1140 230" fill="none" stroke="#475569" stroke-width="2.5" marker-end="url(#arrow)"/><path d="M 830 730 L 1140 730" fill="none" stroke="#475569" stroke-width="2.5" marker-end="url(#arrow)"/><path d="M 180 830 L 180 900 Q 180 920 200 920 L 1120 920 Q 1140 920 1140 900 L 1140 850" fill="none" stroke="#475569" stroke-width="2.5" marker-end="url(#arrow)"/><g transform="translate(260, 430)" class=""><text text-anchor="start" font-size="14" font-weight="600" fill="#1e293b" class="pointer-events-none"><tspan x="0" dy="0" stroke="white" stroke-width="6" stroke-linejoin="round" paint-order="stroke">HTTPS (REST) + WebSocket</tspan></text><text text-anchor="start" font-size="14" font-weight="600" fill="#1e293b" class="pointer-events-none"><tspan x="0" dy="0">HTTPS (REST) + WebSocket</tspan></text></g><g transform="translate(660, 430)" class=""><text text-anchor="start" font-size="14" font-weight="600" fill="#1e293b" class="pointer-events-none"><tspan x="0" dy="0" stroke="white" stroke-width="6" stroke-linejoin="round" paint-order="stroke">HTTPS (REST) + WebSocket</tspan></text><text text-anchor="start" font-size="14" font-weight="600" fill="#1e293b" class="pointer-events-none"><tspan x="0" dy="0">HTTPS (REST) + WebSocket</tspan></text></g><g transform="translate(460, 1010)" class=""><text text-anchor="start" font-size="14" font-weight="600" fill="#1e293b" class="pointer-events-none"><tspan x="0" dy="0" stroke="white" stroke-width="6" stroke-linejoin="round" paint-order="stroke">SQL queries (PostGIS)</tspan></text><text text-anchor="start" font-size="14" font-weight="600" fill="#1e293b" class="pointer-events-none"><tspan x="0" dy="0">SQL queries (PostGIS)</tspan></text></g><g transform="translate(950, 270)" class=""><text text-anchor="start" font-size="14" font-weight="600" fill="#1e293b" class="pointer-events-none"><tspan x="0" dy="0" stroke="white" stroke-width="6" stroke-linejoin="round" paint-order="stroke">native browser calls</tspan></text><text text-anchor="start" font-size="14" font-weight="600" fill="#1e293b" class="pointer-events-none"><tspan x="0" dy="0">native browser calls</tspan></text></g><g transform="translate(1010, 210)" class=""><text text-anchor="middle" font-size="14" font-weight="600" fill="#1e293b" class="pointer-events-none"><tspan x="0" dy="0" stroke="white" stroke-width="6" stroke-linejoin="round" paint-order="stroke">native browser calls</tspan></text><text text-anchor="middle" font-size="14" font-weight="600" fill="#1e293b" class="pointer-events-none"><tspan x="0" dy="0">native browser calls</tspan></text></g><g transform="translate(985, 720)" class=""><text text-anchor="middle" font-size="14" font-weight="600" fill="#1e293b" class="pointer-events-none"><tspan x="0" dy="0" stroke="white" stroke-width="6" stroke-linejoin="round" paint-order="stroke">HTTPS GET</tspan></text><text text-anchor="middle" font-size="14" font-weight="600" fill="#1e293b" class="pointer-events-none"><tspan x="0" dy="0">HTTPS GET</tspan></text></g><g transform="translate(985, 800)" class=""><text text-anchor="middle" font-size="14" font-weight="600" fill="#1e293b" class="pointer-events-none"><tspan x="0" dy="0" stroke="white" stroke-width="6" stroke-linejoin="round" paint-order="stroke">SMTP / API</tspan></text><text text-anchor="middle" font-size="14" font-weight="600" fill="#1e293b" class="pointer-events-none"><tspan x="0" dy="0">SMTP / API</tspan></text></g></svg>