<svg viewBox="0 0 1400 800" class="w-full h-auto min-w-[1000px] block" style="background-color: rgb(255, 255, 255);" xmlns="http://www.w3.org/2000/svg"><defs><pattern id="grid" width="50" height="50" patternUnits="userSpaceOnUse"><circle cx="2" cy="2" r="1.5" fill="#e5e7eb"/></pattern><marker id="arrow" viewBox="0 0 10 10" refX="9" refY="5" markerWidth="6" markerHeight="6" orient="auto-start-reverse"><path d="M 0 1.5 L 10 5 L 0 8.5 z" fill="#333"/></marker></defs><rect width="100%" height="100%" fill="url(#grid)"/><text x="320" y="80" font-size="32" font-weight="800" fill="#111">QR-Guard — Level 0 Context Diagram</text><path d="M 270 240 L 465 240 Q 480 240 480 255 L 480 345 Q 480 360 495 360 L 623 360" fill="none" stroke="#444" stroke-width="2" marker-end="url(#arrow)"/><path d="M 618 380 L 455 380 Q 440 380 440 365 L 440 275 Q 440 260 425 260 L 270 260" fill="none" stroke="#444" stroke-width="2" marker-end="url(#arrow)"/><path d="M 270 540 L 465 540 Q 480 540 480 525 L 480 455 Q 480 440 495 440 L 623 440" fill="none" stroke="#444" stroke-width="2" marker-end="url(#arrow)"/><path d="M 618 420 L 455 420 Q 440 420 440 435 L 440 545 Q 440 560 425 560 L 270 560" fill="none" stroke="#444" stroke-width="2" marker-end="url(#arrow)"/><path d="M 1130 250 L 935 250 Q 920 250 920 265 L 920 345 Q 920 360 905 360 L 778 360" fill="none" stroke="#444" stroke-width="2" marker-end="url(#arrow)"/><path d="M 1130 400 L 785 400" fill="none" stroke="#444" stroke-width="2" marker-end="url(#arrow)"/><path d="M 778 440 L 905 440 Q 920 440 920 455 L 920 535 Q 920 550 935 550 L 1130 550" fill="none" stroke="#444" stroke-width="2" marker-end="url(#arrow)"/><g transform="translate(375, 230)" class=""><text text-anchor="middle" font-size="14" font-weight="600" fill="#111" class="pointer-events-none"><tspan x="0" dy="0" stroke="white" stroke-width="6" paint-order="stroke">Scan data</tspan></text><text text-anchor="middle" font-size="14" font-weight="600" fill="#111" class="pointer-events-none"><tspan x="0" dy="0">Scan data</tspan></text></g><g transform="translate(355, 280)" class=""><text text-anchor="middle" font-size="14" font-weight="600" fill="#111" class="pointer-events-none"><tspan x="0" dy="0" stroke="white" stroke-width="6" paint-order="stroke">Feedback</tspan></text><text text-anchor="middle" font-size="14" font-weight="600" fill="#111" class="pointer-events-none"><tspan x="0" dy="0">Feedback</tspan></text></g><g transform="translate(375, 530)" class=""><text text-anchor="middle" font-size="14" font-weight="600" fill="#111" class="pointer-events-none"><tspan x="0" dy="0" stroke="white" stroke-width="6" paint-order="stroke">Config</tspan></text><text text-anchor="middle" font-size="14" font-weight="600" fill="#111" class="pointer-events-none"><tspan x="0" dy="0">Config</tspan></text></g><g transform="translate(355, 580)" class=""><text text-anchor="middle" font-size="14" font-weight="600" fill="#111" class="pointer-events-none"><tspan x="0" dy="0" stroke="white" stroke-width="6" paint-order="stroke">Reports + QR</tspan></text><text text-anchor="middle" font-size="14" font-weight="600" fill="#111" class="pointer-events-none"><tspan x="0" dy="0">Reports + QR</tspan></text></g><g transform="translate(1025, 240)" class=""><text text-anchor="middle" font-size="14" font-weight="600" fill="#111" class="pointer-events-none"><tspan x="0" dy="0" stroke="white" stroke-width="6" paint-order="stroke">Coordinates</tspan></text><text text-anchor="middle" font-size="14" font-weight="600" fill="#111" class="pointer-events-none"><tspan x="0" dy="0">Coordinates</tspan></text></g><g transform="translate(960, 390)" class=""><text text-anchor="middle" font-size="14" font-weight="600" fill="#111" class="pointer-events-none"><tspan x="0" dy="0" stroke="white" stroke-width="6" paint-order="stroke">IP intel</tspan></text><text text-anchor="middle" font-size="14" font-weight="600" fill="#111" class="pointer-events-none"><tspan x="0" dy="0">IP intel</tspan></text></g><g transform="translate(1025, 540)" class=""><text text-anchor="middle" font-size="14" font-weight="600" fill="#111" class="pointer-events-none"><tspan x="0" dy="0" stroke="white" stroke-width="6" paint-order="stroke">Notifications</tspan></text><text text-anchor="middle" font-size="14" font-weight="600" fill="#111" class="pointer-events-none"><tspan x="0" dy="0">Notifications</tspan></text></g><g transform="translate(130, 220)" class=""><rect width="140" height="60" fill="white" stroke="#111" stroke-width="2.5"/><text x="70" y="35" text-anchor="middle" font-size="15" font-weight="bold" class="pointer-events-none"><tspan x="70" dy="0">Student</tspan></text></g><g transform="translate(130, 520)" class=""><rect width="140" height="60" fill="white" stroke="#111" stroke-width="2.5"/><text x="70" y="35" text-anchor="middle" font-size="15" font-weight="bold" class="pointer-events-none"><tspan x="70" dy="0">Instructor</tspan></text></g><g transform="translate(700, 400)" class=""><circle r="85" fill="white" stroke="#111" stroke-width="2.5"/><line x1="-77.45966692414834" y1="-35" x2="77.45966692414834" y2="-35" stroke="#111" stroke-width="2"/><text y="-52" text-anchor="middle" font-size="15" font-weight="bold" class="pointer-events-none">0</text><text y="5" text-anchor="middle" font-size="16" font-weight="bold" class="pointer-events-none"><tspan x="0" dy="0">QR-Guard</tspan><tspan x="0" dy="20">System</tspan></text></g><g transform="translate(1130, 220)" class=""><rect width="140" height="60" fill="white" stroke="#111" stroke-width="2.5"/><text x="70" y="35" text-anchor="middle" font-size="15" font-weight="bold" class="pointer-events-none"><tspan x="70" dy="0">GPS Service</tspan></text></g><g transform="translate(1130, 370)" class=""><rect width="140" height="60" fill="white" stroke="#111" stroke-width="2.5"/><text x="70" y="35" text-anchor="middle" font-size="15" font-weight="bold" class="pointer-events-none"><tspan x="70" dy="0">IP Geolocation</tspan></text></g><g transform="translate(1130, 520)" class=""><rect width="140" height="60" fill="white" stroke="#111" stroke-width="2.5"/><text x="70" y="35" text-anchor="middle" font-size="15" font-weight="bold" class="pointer-events-none"><tspan x="70" dy="0">Email Server</tspan></text></g></svg>